# xmcd CD database file
#
# Track frame offsets:
#	150
#	19613
#	28402
#	50016
#	70817
#	77146
#	87359
#
# Disc length: 1453 seconds
#
# Revision: 0
# Processed by: cddbd v1.5PL3 Copyright (c) Steve Scherf et al.
# Submitted via: CDex 1.51
#
DISCID=5705ab07
DTITLE=Sojiro - Christmas
DYEAR=1994
DGENRE=New Age
TTITLE0=Xmas 1
TTITLE1=Xmas 2
TTITLE2=Xmas 3
TTITLE3=Xmas 4
TTITLE4=Xmas 5
TTITLE5=Xmas 6
TTITLE6=Xmas 7
EXTD=YEAR: 1994
EXTT0=
EXTT1=
EXTT2=
EXTT3=
EXTT4=
EXTT5=
EXTT6=
PLAYORDER=
